<svg xmlns="http://www.w3.org/2000/svg" viewBox="0 0 64 64" width="64" height="64" role="img" aria-label="PromptMarket">
  <defs>
    <linearGradient id="tile" x1="8" y1="6" x2="58" y2="58" gradientUnits="userSpaceOnUse">
      <stop stop-color="#21183a" />
      <stop offset="0.62" stop-color="#171329" />
      <stop offset="1" stop-color="#0f1220" />
    </linearGradient>
    <linearGradient id="volt" x1="18" y1="14" x2="52" y2="52" gradientUnits="userSpaceOnUse">
      <stop stop-color="#dff95f" />
      <stop offset="1" stop-color="#62d55a" />
    </linearGradient>
  </defs>
  <rect x="5" y="5" width="54" height="54" rx="15" fill="url(#tile)" />
  <path d="M12 48L50 10" stroke="#f38a78" stroke-width="7" stroke-linecap="round" opacity="0.22" />
  <path d="M20 15h17.5c8.5 0 14 5.1 14 12.6 0 7.7-5.9 12.8-14.8 12.8H30.6V51H20V15Zm10.6 9.1v12h6.3c3.7 0 6.1-2.2 6.1-6s-2.4-6-6.1-6h-6.3Z" fill="url(#volt)" />
  <path d="M31 25h6c3.4 0 5.4 1.9 5.4 5.1 0 3.1-2.1 5-5.4 5h-6V25Z" fill="#18152a" opacity="0.9" />
  <circle cx="51" cy="51" r="7" fill="#7ee85a" stroke="#171329" stroke-width="2.5" />
  <path d="M47.5 51h7" stroke="#171329" stroke-width="1.8" stroke-linecap="round" />
</svg>
