<svg xmlns="http://www.w3.org/2000/svg" width="512" height="512" viewBox="0 0 512 512" role="img" aria-label="PromptMarket">
  <defs>
    <linearGradient id="bg" x1="70" y1="40" x2="442" y2="476" gradientUnits="userSpaceOnUse">
      <stop stop-color="#31204a"/>
      <stop offset=".56" stop-color="#171225"/>
      <stop offset="1" stop-color="#31204a"/>
    </linearGradient>
    <radialGradient id="glow" cx="72%" cy="23%" r="68%">
      <stop stop-color="#ffb454" stop-opacity=".72"/>
      <stop offset=".58" stop-color="#39d5c8" stop-opacity=".24"/>
      <stop offset="1" stop-color="#171225" stop-opacity="0"/>
    </radialGradient>
    <filter id="shadow" x="-20%" y="-20%" width="140%" height="140%">
      <feDropShadow dx="0" dy="18" stdDeviation="22" flood-color="#171225" flood-opacity=".34"/>
    </filter>
  </defs>
  <rect width="512" height="512" rx="94" fill="url(#bg)"/>
  <rect width="512" height="512" rx="94" fill="url(#glow)"/>
  <path d="M46 342C154 278 238 414 466 292" fill="none" stroke="#f8f1df" stroke-opacity=".1" stroke-width="26" stroke-linecap="round"/>
  <g filter="url(#shadow)">
        <g transform="translate(-20 -20) scale(1.08)">
          <rect x="112" y="142" width="288" height="214" rx="40" fill="#f8f1df" opacity=".96"/>
          <rect x="142" y="176" width="118" height="28" rx="14" fill="#ffb454"/>
          <rect x="142" y="225" width="228" height="22" rx="11" fill="#171225" opacity=".68"/>
          <rect x="142" y="266" width="166" height="22" rx="11" fill="#171225" opacity=".34"/>
          <path d="M314 154l22 46 50 7-36 35 8 50-44-24-45 24 9-50-37-35 51-7z" fill="#39d5c8"/>
          <path d="M160 324l42-40 24 24 42-50" fill="none" stroke="#31204a" stroke-width="22" stroke-linecap="round" stroke-linejoin="round"/>
        </g></g>
</svg>
