<svg xmlns="http://www.w3.org/2000/svg" width="1200" height="630" viewBox="0 0 1200 630" role="img" aria-label="PromptMarket">
  <defs>
    <linearGradient id="bg" x1="0" y1="0" x2="1200" y2="630" gradientUnits="userSpaceOnUse">
      <stop stop-color="#171225"/>
      <stop offset=".58" stop-color="#31204a"/>
      <stop offset="1" stop-color="#ffb454"/>
    </linearGradient>
    <radialGradient id="halo" cx="78%" cy="19%" r="62%">
      <stop stop-color="#39d5c8" stop-opacity=".82"/>
      <stop offset=".56" stop-color="#ffb454" stop-opacity=".22"/>
      <stop offset="1" stop-color="#171225" stop-opacity="0"/>
    </radialGradient>
    <filter id="soft" x="-20%" y="-20%" width="140%" height="140%">
      <feDropShadow dx="0" dy="18" stdDeviation="24" flood-color="#171225" flood-opacity=".26"/>
    </filter>
  </defs>
  <rect width="1200" height="630" fill="url(#bg)"/>
  <rect width="1200" height="630" fill="url(#halo)"/>
  <path d="M0 498C166 430 340 458 512 512c176 54 336 44 504-54 72-42 126-57 184-54v226H0Z" fill="#f8f1df" opacity=".12"/>
  <path d="M74 96h216M74 542h412" stroke="#f8f1df" stroke-opacity=".16" stroke-width="16" stroke-linecap="round"/>
  <g transform="translate(84 86)" filter="url(#soft)">
    <svg width="104" height="104" viewBox="0 0 512 512">
  <rect width="512" height="512" rx="116" fill="url(#bg)"/>
  <rect width="512" height="512" rx="116" fill="url(#glow)"/>
  <path d="M46 342C154 278 238 414 466 292" fill="none" stroke="#f8f1df" stroke-opacity=".1" stroke-width="26" stroke-linecap="round"/>
  <g filter="url(#shadow)">
        <g transform="translate(0 0) scale(1)">
          <rect x="112" y="142" width="288" height="214" rx="40" fill="#f8f1df" opacity=".96"/>
          <rect x="142" y="176" width="118" height="28" rx="14" fill="#ffb454"/>
          <rect x="142" y="225" width="228" height="22" rx="11" fill="#171225" opacity=".68"/>
          <rect x="142" y="266" width="166" height="22" rx="11" fill="#171225" opacity=".34"/>
          <path d="M314 154l22 46 50 7-36 35 8 50-44-24-45 24 9-50-37-35 51-7z" fill="#39d5c8"/>
          <path d="M160 324l42-40 24 24 42-50" fill="none" stroke="#31204a" stroke-width="22" stroke-linecap="round" stroke-linejoin="round"/>
        </g></g>
</svg>
  </g>
  <text x="214" y="148" font-family="Inter, Pretendard, system-ui, -apple-system, BlinkMacSystemFont, 'Segoe UI', sans-serif" font-size="34" font-weight="900" fill="#f8f1df">PromptMarket</text>
  <text x="92" y="270" font-family="Inter, Pretendard, system-ui, -apple-system, BlinkMacSystemFont, 'Segoe UI', sans-serif" font-size="62" font-weight="900" fill="#f8f1df">PromptMarket</text>
  <text x="94" y="335" font-family="Pretendard, system-ui, -apple-system, BlinkMacSystemFont, 'Segoe UI', sans-serif" font-size="27" font-weight="700" fill="#f8f1df" opacity=".86">검증된 AI 프롬프트, 스킬, MCP, 에이전트 마켓플레이스</text>
  <g transform="translate(92 485)"><rect width="166" height="44" rx="22" fill="#f8f1df" opacity=".13" stroke="#f8f1df" stroke-opacity=".26"/><text x="83" y="28" text-anchor="middle" font-size="15" font-weight="800" fill="#f8f1df">프롬프트 큐레이션</text></g><g transform="translate(282 485)"><rect width="166" height="44" rx="22" fill="#f8f1df" opacity=".13" stroke="#f8f1df" stroke-opacity=".26"/><text x="83" y="28" text-anchor="middle" font-size="15" font-weight="800" fill="#f8f1df">스킬 거래</text></g><g transform="translate(472 485)"><rect width="166" height="44" rx="22" fill="#f8f1df" opacity=".13" stroke="#f8f1df" stroke-opacity=".26"/><text x="83" y="28" text-anchor="middle" font-size="15" font-weight="800" fill="#f8f1df">에이전트 카탈로그</text></g>
  <g filter="url(#soft)">
    <g transform="translate(722 116)">
      <rect width="342" height="330" rx="46" fill="#f8f1df" opacity=".94"/>
      <rect x="34" y="36" width="176" height="22" rx="11" fill="#171225" opacity=".84"/>
      <rect x="34" y="82" width="252" height="14" rx="7" fill="#171225" opacity=".22"/>
      <rect x="34" y="112" width="206" height="14" rx="7" fill="#171225" opacity=".14"/>
      <g transform="translate(34 156) scale(.56)">
        <g transform="translate(0 0) scale(1)">
          <rect x="112" y="142" width="288" height="214" rx="40" fill="#f8f1df" opacity=".96"/>
          <rect x="142" y="176" width="118" height="28" rx="14" fill="#ffb454"/>
          <rect x="142" y="225" width="228" height="22" rx="11" fill="#171225" opacity=".68"/>
          <rect x="142" y="266" width="166" height="22" rx="11" fill="#171225" opacity=".34"/>
          <path d="M314 154l22 46 50 7-36 35 8 50-44-24-45 24 9-50-37-35 51-7z" fill="#39d5c8"/>
          <path d="M160 324l42-40 24 24 42-50" fill="none" stroke="#31204a" stroke-width="22" stroke-linecap="round" stroke-linejoin="round"/>
        </g></g>
      <rect x="216" y="177" width="72" height="118" rx="24" fill="#ffb454" opacity=".88"/>
      <rect x="104" y="252" width="184" height="22" rx="11" fill="#39d5c8" opacity=".82"/>
    </g></g>
</svg>
